<?xml version="1.0" encoding="UTF-8" standalone="no"?>
<!-- Created with Inkscape (http://www.inkscape.org/) -->

<svg
   width="50"
   height="50"
   viewBox="0 0 13.229166 13.229166"
   version="1.1"
   id="svg5"
   inkscape:version="1.2 (dc2aedaf03, 2022-05-15)"
   sodipodi:docname="dig.svg"
   xmlns:inkscape="http://www.inkscape.org/namespaces/inkscape"
   xmlns:sodipodi="http://sodipodi.sourceforge.net/DTD/sodipodi-0.dtd"
   xmlns:xlink="http://www.w3.org/1999/xlink"
   xmlns="http://www.w3.org/2000/svg"
   xmlns:svg="http://www.w3.org/2000/svg">
  <sodipodi:namedview
     id="namedview7"
     pagecolor="#ffffff"
     bordercolor="#000000"
     borderopacity="0.25"
     inkscape:showpageshadow="2"
     inkscape:pageopacity="0.0"
     inkscape:pagecheckerboard="0"
     inkscape:deskcolor="#d1d1d1"
     inkscape:document-units="mm"
     showgrid="false"
     inkscape:zoom="10.59046"
     inkscape:cx="19.734742"
     inkscape:cy="19.734742"
     inkscape:window-width="1920"
     inkscape:window-height="995"
     inkscape:window-x="0"
     inkscape:window-y="0"
     inkscape:window-maximized="1"
     inkscape:current-layer="layer1" />
  <defs
     id="defs2">
    <linearGradient
       inkscape:collect="always"
       id="linearGradient1823">
      <stop
         style="stop-color:#423e1f;stop-opacity:1;"
         offset="0.19320987"
         id="stop1819" />
      <stop
         style="stop-color:#5c562c;stop-opacity:1;"
         offset="0.57247823"
         id="stop1894" />
      <stop
         style="stop-color:#978d47;stop-opacity:1;"
         offset="1"
         id="stop1821" />
    </linearGradient>
    <radialGradient
       inkscape:collect="always"
       xlink:href="#linearGradient1823"
       id="radialGradient1817"
       cx="6.6145797"
       cy="6.7197895"
       fx="6.6145797"
       fy="6.7197895"
       r="5.3069253"
       gradientTransform="matrix(0.99679301,0,1.0046066e-6,1.0526349,0.02120992,-0.35369523)"
       gradientUnits="userSpaceOnUse" />
  </defs>
  <g
     inkscape:label="Layer 1"
     inkscape:groupmode="layer"
     id="layer1">
    <rect
       style="fill:url(#radialGradient1817);fill-opacity:1;stroke-width:1"
       id="rect1714"
       width="10.613851"
       height="11.172509"
       x="1.2906393"
       y="1.1335354" />
    <path
       id="path1657"
       style="fill:#423e1f;fill-opacity:1;stroke-width:0.591051"
       d="M 9.1481873,6.7196994 C 9.0818959,7.0066527 8.5104792,6.9062881 8.3913901,7.1756475 8.2627359,7.4666414 8.6835079,7.8119624 8.5772755,8.1118691 8.5090644,8.3044369 8.3102208,8.5131095 8.1061392,8.5038469 7.9429356,8.4964396 7.9177598,8.1973703 7.7593175,8.1575417 7.4963736,8.091444 7.2062897,8.241829 6.9803996,8.3917691 6.7755717,8.5277287 6.7551143,8.9364496 6.5104161,8.9601625 6.2522583,8.9851797 6.1587655,8.5355836 5.9086666,8.4668681 5.6346621,8.3915845 5.3120555,8.7364175 5.065815,8.5946018 4.8134334,8.4492493 4.9668284,7.9710191 4.7455168,7.7816913 4.5789707,7.6392141 4.223095,7.8221605 4.1038241,7.6382807 3.9068218,7.3345623 4.2020911,6.9162877 4.3196856,6.5739045 4.3889931,6.3721118 4.6034624,6.2141596 4.6047576,6.0008004 4.6059989,5.7963165 4.3001216,5.6491644 4.3382327,5.4482595 4.3801398,5.2273435 4.610526,5.0196337 4.8334495,4.9902188 4.9962471,4.9687376 5.1053453,5.2242209 5.2694851,5.2194639 5.4596253,5.2139535 5.59507,5.0226634 5.7583634,4.9250985 6.0085388,4.7756233 6.2198369,4.5014718 6.5104161,4.4792375 c 0.1984677,-0.015186 0.358839,0.1837351 0.5540095,0.2228316 0.2004972,0.040163 0.4106014,-0.018285 0.6133894,0.00797 0.2386765,0.0309 0.5395314,-0.0041 0.7005306,0.1747807 0.1855835,0.206203 0.018669,0.5642532 0.1155954,0.824188 0.1402176,0.3760306 0.7445799,0.6196695 0.6542463,1.0106934 z"
       sodipodi:nodetypes="sssssssssssssssssssssss" />
    <path
       id="rect306"
       style="fill:#bcb373;fill-opacity:1;stroke-width:1"
       d="M 0,0 V 13.229167 H 13.229167 V 0 Z m 6.3928914,2.3161377 c 0.3807781,-0.029152 0.6885324,0.3523474 1.0629843,0.4273641 0.3846158,0.077053 0.7876659,-0.0349 1.1766723,0.015503 0.4579434,0.059335 1.0352076,-0.00786 1.344104,0.3353801 0.356045,0.3956344 0.035731,1.082587 0.221692,1.5812988 0.268995,0.7213941 1.428497,1.1887379 1.25522,1.9388997 -0.127181,0.5506014 -1.223667,0.3580145 -1.452107,0.874882 C 9.754674,8.0478348 10.5624,8.7103078 10.358541,9.2857381 10.227629,9.6552615 9.8458213,10.055539 9.4542033,10.03763 9.1411326,10.023313 9.0930602,9.4495122 8.7891276,9.3730713 8.2846251,9.2461858 7.7280641,9.5349571 7.2946452,9.8226562 6.9016888,10.083497 6.8623409,10.867535 6.3928914,10.913029 5.897657,10.961022 5.718214,10.098656 5.2384399,9.9668335 4.7126219,9.8223597 4.093487,10.483961 3.6209676,10.21178 3.1367933,9.9328851 3.4310672,9.0154747 3.0065348,8.6521851 2.6870785,8.3788134 2.0043742,8.7295213 1.7756022,8.3767497 1.3977643,7.794115 1.9639197,6.9917668 2.1895304,6.3350138 2.322553,5.947785 2.7342757,5.6447717 2.7367839,5.2353394 2.739188,4.8428929 2.1520055,4.5605093 2.2251872,4.174939 2.3056297,3.751114 2.7478272,3.3528328 3.1755168,3.2964396 3.4878729,3.2552537 3.6972314,3.7453565 4.0121582,3.7362061 4.3769598,3.7256065 4.6367901,3.3585686 4.9500854,3.1713826 5.4300263,2.88463 5.8354427,2.3588147 6.3928914,2.3161377 Z"
       sodipodi:nodetypes="cccccsssssssssssssssssssssss" />
  </g>
</svg>
